# xmcd CD database file
#
# Track frame offsets:
#	150
#	20007
#	35786
#	68273
#	75591
#	102658
#	122501
#	133936
#	171689
#	194583
#
# Disc length: 2892 seconds
#
# Revision: 0
# Processed by: cddbd v1.4PL0 Copyright (c) Steve Scherf et al.
# Submitted via: CDex 1.50beta10
#
DISCID=910b4a0a
DTITLE=Tommy Flanagan - My Funny Valentine
DYEAR=1981
DGENRE=Jazz
TTITLE0=Giant Steps
TTITLE1=Oleo
TTITLE2=Ill Remember April
TTITLE3=Yesterday
TTITLE4=D Natural Blues
TTITLE5=Star Eyes
TTITLE6=Morning of the Carnival
TTITLE7=My Funny Valentine
TTITLE8=Round Midnight
TTITLE9=My Funny Valentine
EXTD=YEAR: 1981
EXTT0=
EXTT1=
EXTT2=
EXTT3=
EXTT4=
EXTT5=
EXTT6=
EXTT7=
EXTT8=
EXTT9=
PLAYORDER=
